<svg xmlns="http://www.w3.org/2000/svg" viewBox="0 0 256 256" fill="none">
  <defs>
    <linearGradient id="bg" x1="36" y1="24" x2="220" y2="236" gradientUnits="userSpaceOnUse">
      <stop offset="0" stop-color="#22C55E"/>
      <stop offset="1" stop-color="#0B7A3A"/>
    </linearGradient>

    <linearGradient id="glass" x1="62" y1="34" x2="190" y2="154" gradientUnits="userSpaceOnUse">
      <stop offset="0" stop-color="#FFFFFF" stop-opacity="0.32"/>
      <stop offset="1" stop-color="#FFFFFF" stop-opacity="0"/>
    </linearGradient>

    <linearGradient id="zeta" x1="98" y1="86" x2="164" y2="158" gradientUnits="userSpaceOnUse">
      <stop offset="0" stop-color="#16A34A"/>
      <stop offset="1" stop-color="#0B7A3A"/>
    </linearGradient>

    <filter id="shadow" x="-20%" y="-20%" width="160%" height="180%">
      <feDropShadow dx="0" dy="10" stdDeviation="10" flood-color="#064E2B" flood-opacity="0.28"/>
    </filter>
  </defs>

  <rect width="256" height="256" rx="56" fill="url(#bg)"/>
  <rect x="18" y="18" width="220" height="220" rx="44" fill="url(#glass)"/>

  <g filter="url(#shadow)">
    <path d="M62 104c0-25 20-45 45-45h42c25 0 45 20 45 45v24c0 25-20 45-45 45h-22l-23 20c-6 5-16 1-16-8v-14c-15-6-26-21-26-38v-29z" fill="#FFFFFF"/>
    <path d="M101 88h57c4 0 6 5 3 8l-31 33h30c4 0 6 5 3 8l-40 30c-4 3-9-1-7-5l11-23h-26c-4 0-6-5-3-8l32-36h-24c-4 0-6-5-3-7z" fill="url(#zeta)"/>
    <path d="M72 72c9-11 23-17 38-17h36" stroke="#FFFFFF" stroke-opacity="0.2" stroke-width="4" stroke-linecap="round"/>
  </g>
</svg>